<svg width="169" height="169" viewBox="0 0 169 169" fill="none" xmlns="http://www.w3.org/2000/svg">
<path d="M137.992 4.19124V97.2492C138.063 106.188 130.298 124.116 105.45 124.916V124.932L46.5465 124.998C46.5459 124.998 46.5454 124.999 46.5449 125C32.2944 124.998 20.4415 119.294 12.0885 109.029C3.92326 98.9944 0 85.4369 0 70.4403C0 64.4423 4.85652 59.58 10.8473 59.58C16.8382 59.58 21.6947 64.4423 21.6947 70.4403C21.6947 81.8492 24.684 90.1188 28.9081 95.31C32.5241 99.7539 37.5429 102.595 44.1941 103.139V78.2969C44.8323 69.2112 51.6812 50.2731 73.9713 47.2066V4.19124C73.7584 0.997042 78.0123 -2.83611 84.3932 3.12651L96.3041 13.7739H115.66L127.57 3.12651C133.951 -2.83611 138.205 0.997041 137.992 4.19124Z" fill="black"/>
<ellipse rx="10.2093" ry="10.2215" transform="matrix(-1 0 0 1 121.486 36.6263)" fill="#FDD514"/>
<ellipse rx="6.38079" ry="6.38842" transform="matrix(-1 0 0 1 120.208 36.6262)" fill="black"/>
<ellipse rx="6.38079" ry="6.38842" transform="matrix(-1 0 0 1 120.208 36.6262)" fill="black"/>
<ellipse rx="6.38079" ry="6.38842" transform="matrix(-1 0 0 1 120.208 36.6262)" fill="black"/>
<ellipse cx="90.574" cy="36.6272" rx="10.2093" ry="10.2215" fill="#FDD514"/>
<ellipse cx="91.8483" cy="36.6272" rx="6.38079" ry="6.38842" fill="black"/>
<ellipse cx="91.8483" cy="36.6272" rx="6.38079" ry="6.38842" fill="black"/>
<ellipse cx="91.8483" cy="36.6272" rx="6.38079" ry="6.38842" fill="black"/>
<path d="M103.07 42.1274C100.587 44.1693 103.001 46.2266 104.518 47L107.5 47C111.472 45.1438 110.035 43.0556 109.069 42.1274C108.035 41.2767 105.552 40.0855 103.07 42.1274Z" fill="#6E6E6E"/>
<rect width="2.98037" height="7.45088" rx="1.49019" transform="matrix(-0.499552 -0.866284 0.865766 -0.500448 101.419 56.6694)" fill="#6E6E6E"/>
<rect width="2.98037" height="7.45088" rx="1.49019" transform="matrix(0.499552 -0.866284 -0.865766 -0.500448 110.635 56.6694)" fill="#6E6E6E"/>
<rect width="2.9777" height="9.36969" rx="1.48885" transform="matrix(1 0 0 -1 104.611 53.2363)" fill="#6E6E6E"/>
<path d="M0 160C0 155.582 3.58172 152 8 152H148C152.418 152 156 155.582 156 160V161C156 165.418 152.418 169 148 169H8C3.58172 169 0 165.418 0 161V160Z" fill="#D740D1"/>
<rect x="13" y="135" width="156" height="17" rx="8" fill="#40A9D7"/>
<path d="M7 126.72C7 122.413 10.4045 118.883 14.7109 118.795C22.0669 118.645 33.2217 118.538 41.5 119C46.5839 119.284 49.4454 119.386 54.5 120C60.2042 120.693 63.316 121.657 69 122.5C75.3994 123.449 78.9985 124.084 85.4359 124.496C85.4781 124.499 85.5143 124.501 85.5565 124.504C86.4258 124.571 97.1268 125.365 104 124.5C109.968 123.749 114.439 122.11 119 121C121.175 120.471 122.887 119.934 124.007 119.55C125.001 119.209 126.041 119 127.092 119H155C159.418 119 163 122.582 163 127C163 131.418 159.418 135 155 135H15C10.5817 135 7 131.418 7 127V126.72Z" fill="#9EDF15"/>
</svg>
