<?xml version="1.0" encoding="UTF-8"?>
<!DOCTYPE svg PUBLIC "-//W3C//DTD SVG 1.1//EN" "http://www.w3.org/Graphics/SVG/1.1/DTD/svg11.dtd">
<!-- Creator: CorelDRAW X7 -->
<svg xmlns="http://www.w3.org/2000/svg" xml:space="preserve" width="230px" height="45px" version="1.1" style="shape-rendering:geometricPrecision; text-rendering:geometricPrecision; image-rendering:optimizeQuality; fill-rule:evenodd; clip-rule:evenodd"
viewBox="0 0 2055 540"
 xmlns:xlink="http://www.w3.org/1999/xlink">
 <defs>
  <style type="text/css">
   <![CDATA[
    .str0 {stroke:#10375D;stroke-width:23.7524}
    .fil0 {fill:none}
    .fil1 {fill:#10375D;fill-rule:nonzero}
    .fil2 {fill:#10375D;fill-rule:nonzero}
   ]]>
  </style>
 </defs>
 <g id="Слой_x0020_1">
  <metadata id="CorelCorpID_0Corel-Layer"/>
  <g id="_760175728">
   <path class="fil0 str0" d="M1925 12c126,0 228,60 228,133 0,74 -102,133 -228,133 -126,0 -229,-59 -229,-133 0,-73 103,-133 229,-133z"/>
   <path class="fil1" d="M1799 137l7 0c7,0 13,-1 16,-4 4,-3 6,-7 6,-12 0,-6 -2,-10 -5,-13 -3,-2 -7,-3 -14,-3l-10 0 0 32zm52 -17c0,12 -3,21 -11,27 -7,6 -18,9 -31,9l-10 0 0 40 -24 0 0 -111 35 0c14,0 24,3 31,9 7,6 10,14 10,26zm44 14l8 0c7,0 13,-1 16,-3 4,-3 6,-7 6,-12 0,-5 -2,-9 -6,-11 -3,-2 -9,-3 -16,-3l-8 0 0 29zm0 19l0 43 -23 0 0 -111 32 0c15,0 26,3 33,9 8,5 11,13 11,24 0,7 -2,13 -5,18 -4,5 -9,9 -15,12 16,24 27,40 32,48l-26 0 -26 -43 -13 0zm179 -13c0,19 -4,33 -14,42 -9,10 -22,15 -38,15 -17,0 -30,-5 -39,-15 -9,-9 -14,-23 -14,-42 0,-18 5,-32 14,-42 9,-9 22,-14 39,-14 17,0 30,5 39,14 9,10 13,24 13,42zm-80 0c0,13 2,22 7,28 4,6 11,10 21,10 18,0 28,-13 28,-38 0,-24 -10,-37 -28,-37 -10,0 -17,3 -21,10 -5,6 -7,15 -7,27z"/>
   <path class="fil1" d="M99 541l-55 -181 -2 0c2,37 3,62 3,74l0 107 -44 0 0 -231 67 0 55 177 1 0 58 -177 66 0 0 231 -45 0 0 -109c0,-5 0,-11 0,-18 0,-7 1,-24 2,-54l-1 0 -60 181 -45 0zm197 -22c0,-9 2,-16 7,-20 5,-5 12,-7 21,-7 8,0 15,2 20,7 5,4 7,11 7,20 0,8 -2,15 -7,19 -5,5 -12,8 -20,8 -9,0 -16,-3 -21,-7 -5,-5 -7,-12 -7,-20zm291 22l-56 0 -83 -117 0 117 -49 0 0 -231 49 0 0 112 82 -112 53 0 -85 111 89 120zm212 0l-49 0 0 -190 -57 0 -2 21c-7,54 -13,92 -18,114 -5,21 -12,37 -21,46 -10,8 -23,13 -39,13 -9,0 -17,-2 -24,-4l0 -40c6,2 12,3 18,3 5,0 10,-2 13,-8 3,-5 6,-14 9,-28 3,-14 7,-37 12,-68 4,-32 9,-61 12,-90l146 0 0 231zm58 -231l44 0 0 112 -1 30 -1 34 1 0 106 -176 59 0 0 231 -44 0 0 -111c0,-14 1,-36 3,-66l-1 0 -107 177 -59 0 0 -231zm364 231l-56 -181 -1 0c2,37 3,62 3,74l0 107 -44 0 0 -231 67 0 54 177 1 0 58 -177 67 0 0 231 -46 0 0 -109c0,-5 1,-11 1,-18 0,-7 1,-24 2,-54l-2 0 -59 181 -45 0zm349 0l-17 -55 -84 0 -17 55 -53 0 82 -232 59 0 82 232 -52 0zm-29 -96c-15,-50 -24,-78 -26,-84 -2,-7 -3,-12 -4,-16 -4,14 -14,47 -30,100l60 0zm177 96l-49 0 0 -190 -63 0 0 -41 174 0 0 41 -62 0 0 190z"/>
   <polygon class="fil2" points="30,668 17,668 17,617 0,617 0,606 47,606 47,617 30,617 "/>
   <path id="1" class="fil2" d="M117 637c0,11 -2,19 -7,24 -5,6 -13,8 -22,8 -10,0 -17,-2 -22,-8 -5,-5 -8,-13 -8,-24 0,-10 3,-18 8,-23 5,-6 13,-8 22,-8 10,0 17,2 22,8 5,5 7,13 7,23zm-45 0c0,7 2,12 4,16 3,3 7,5 12,5 10,0 16,-7 16,-21 0,-14 -6,-21 -16,-21 -5,0 -9,2 -12,6 -2,3 -4,8 -4,15z"/>
   <path id="2" class="fil2" d="M150 636l4 0c4,0 7,-1 9,-3 2,-1 3,-4 3,-7 0,-3 0,-5 -2,-7 -2,-1 -4,-2 -8,-2l-6 0 0 19zm30 -10c0,6 -2,12 -7,15 -4,4 -10,5 -17,5l-6 0 0 22 -13 0 0 -62 20 0c7,0 13,2 17,5 4,4 6,8 6,15z"/>
   <polygon id="3" class="fil2" points="237,606 237,617 211,617 211,668 198,668 198,606 "/>
   <path id="4" class="fil2" d="M308 637c0,11 -3,19 -8,24 -5,6 -12,8 -22,8 -9,0 -16,-2 -21,-8 -6,-5 -8,-13 -8,-24 0,-10 2,-18 8,-23 5,-6 12,-8 22,-8 9,0 16,2 21,8 5,5 8,13 8,23zm-45 0c0,7 1,12 4,16 2,3 6,5 11,5 11,0 16,-7 16,-21 0,-14 -5,-21 -15,-21 -6,0 -10,2 -12,6 -3,3 -4,8 -4,15z"/>
   <path id="5" class="fil2" d="M327 606l20 0c8,0 15,2 19,4 4,3 6,7 6,12 0,4 -1,7 -3,9 -2,3 -4,4 -7,5l0 0c4,1 7,2 9,5 1,2 2,5 2,9 0,6 -2,10 -6,14 -4,3 -9,4 -16,4l-24 0 0 -62zm14 25l7 0c4,0 6,-1 8,-2 1,-1 2,-3 2,-5 0,-3 -1,-4 -2,-5 -2,-1 -5,-2 -9,-2l-6 0 0 14zm0 10l0 17 8 0c4,0 6,-1 8,-3 2,-1 3,-3 3,-6 0,-5 -4,-8 -11,-8l-8 0z"/>
   <path id="6" class="fil2" d="M449 637c0,11 -3,19 -8,24 -5,6 -12,8 -22,8 -9,0 -17,-2 -22,-8 -5,-5 -7,-13 -7,-24 0,-10 2,-18 7,-23 5,-6 13,-8 22,-8 10,0 17,2 22,8 5,5 8,13 8,23zm-46 0c0,7 2,12 4,16 3,3 7,5 12,5 11,0 16,-7 16,-21 0,-14 -5,-21 -16,-21 -5,0 -9,2 -12,6 -2,3 -4,8 -4,15z"/>
   <polygon id="7" class="fil2" points="463,650 463,640 486,640 486,650 "/>
   <path id="8" class="fil2" d="M529 668l-15 -48 0 0c0,10 0,16 0,20l0 28 -11 0 0 -62 18 0 14 48 0 0 16 -48 18 0 0 62 -12 0 0 -29c0,-1 0,-3 0,-5 0,-2 0,-6 0,-14l0 0 -16 48 -12 0z"/>
   <path id="9" class="fil2" d="M647 637c0,11 -2,19 -7,24 -5,6 -13,8 -22,8 -10,0 -17,-2 -22,-8 -5,-5 -8,-13 -8,-24 0,-10 3,-18 8,-23 5,-6 12,-8 22,-8 9,0 17,2 22,8 5,5 7,13 7,23zm-45 0c0,7 1,12 4,16 3,3 7,5 12,5 10,0 16,-7 16,-21 0,-14 -6,-21 -16,-21 -5,0 -9,2 -12,6 -3,3 -4,8 -4,15z"/>
   <polygon id="10" class="fil2" points="718,668 704,668 704,642 680,642 680,668 667,668 667,606 680,606 680,631 704,631 704,606 718,606 "/>
   <polygon id="11" class="fil2" points="764,668 751,668 751,617 734,617 734,606 781,606 781,617 764,617 "/>
   <path id="12" class="fil2" d="M829 668l-5 -14 -22 0 -5 14 -14 0 22 -62 16 0 22 62 -14 0zm-8 -25c-4,-14 -7,-21 -7,-23 -1,-2 -1,-3 -1,-4 -1,3 -4,12 -8,27l16 0z"/>
   <polygon id="13" class="fil2" points="871,636 851,606 864,606 884,636 884,606 896,606 896,636 916,606 930,606 909,636 931,668 917,668 896,637 896,668 884,668 884,637 863,668 849,668 "/>
   <polygon id="14" class="fil2" points="996,668 983,668 983,642 959,642 959,668 946,668 946,606 959,606 959,631 983,631 983,606 996,606 "/>
   <path id="15" class="fil2" d="M1057 668l-5 -14 -22 0 -5 14 -14 0 22 -62 16 0 22 62 -14 0zm-8 -25c-4,-14 -6,-21 -7,-23 -1,-2 -1,-3 -1,-4 -1,3 -4,12 -8,27l16 0z"/>
   <path id="16" class="fil2" d="M1106 645l-14 23 -15 0 18 -27c-4,-1 -7,-3 -8,-6 -2,-3 -3,-7 -3,-11 0,-6 2,-10 6,-13 4,-3 10,-5 17,-5l20 0 0 62 -13 0 0 -23 -8 0zm8 -28l-6 0c-4,0 -6,1 -8,2 -2,1 -3,3 -3,6 0,3 1,5 3,7 2,1 4,2 8,2l6 0 0 -17z"/>
   <polygon id="17" class="fil2" points="1223,668 1208,668 1185,637 1185,668 1172,668 1172,606 1185,606 1185,636 1207,606 1221,606 1199,636 "/>
   <path id="18" class="fil2" d="M1292 637c0,11 -3,19 -8,24 -5,6 -12,8 -22,8 -9,0 -17,-2 -22,-8 -5,-5 -7,-13 -7,-24 0,-10 2,-18 7,-23 5,-6 13,-8 22,-8 10,0 17,2 22,8 5,5 8,13 8,23zm-46 0c0,7 2,12 4,16 3,3 7,5 12,5 11,0 16,-7 16,-21 0,-14 -5,-21 -16,-21 -5,0 -9,2 -12,6 -2,3 -4,8 -4,15z"/>
   <path id="19" class="fil2" d="M1337 668l-15 -48 0 0c1,10 1,16 1,20l0 28 -12 0 0 -62 18 0 15 48 0 0 15 -48 18 0 0 62 -12 0 0 -29c0,-1 0,-3 0,-5 0,-2 0,-6 1,-14l-1 0 -16 48 -12 0z"/>
   <polygon id="20" class="fil2" points="1449,668 1435,668 1435,617 1413,617 1413,668 1400,668 1400,606 1449,606 "/>
   <path id="21" class="fil2" d="M1509 668l-5 -14 -22 0 -5 14 -14 0 22 -62 16 0 22 62 -14 0zm-8 -25c-4,-14 -6,-21 -7,-23 0,-2 -1,-3 -1,-4 -1,3 -4,12 -8,27l16 0z"/>
   <polygon id="22" class="fil2" points="1588,668 1575,668 1575,642 1550,642 1550,668 1537,668 1537,606 1550,606 1550,631 1575,631 1575,606 1588,606 "/>
   <path id="23" class="fil2" d="M1610 606l12 0 0 30 0 8 0 9 0 0 28 -47 16 0 0 62 -12 0 0 -29c0,-4 1,-10 1,-18l0 0 -29 47 -16 0 0 -62z"/>
   <path id="24" class="fil2" d="M1709 645l-14 23 -15 0 18 -27c-4,-1 -6,-3 -8,-6 -2,-3 -3,-7 -3,-11 0,-6 2,-10 6,-13 4,-3 10,-5 17,-5l21 0 0 62 -14 0 0 -23 -8 0zm8 -28l-6 0c-3,0 -6,1 -8,2 -2,1 -3,3 -3,6 0,3 1,5 3,7 2,1 5,2 8,2l6 0 0 -17z"/>
  </g>
 </g>
</svg>
