<svg width="340" height="39" viewBox="0 0 340 39" fill="none" xmlns="http://www.w3.org/2000/svg"><path d="M199.657 38.3589L188.159 1.40234H175.997L164.491 38.3585H175.179L176.765 32.0291H187.392L188.977 38.3585L199.657 38.3589ZM225.913 1.40275H214.977L210.275 15.7613H210.173L205.468 1.40275H194.525L205.112 26.4834V38.3589H215.332V26.483L225.913 1.40275ZM271.475 38.3589V1.40234H261.255V38.3589H271.475ZM258.438 38.3589L248.577 19.2164L258.235 1.40234H246.943L238.51 17.7876H238.409V1.40234H228.188V38.3589H238.409V20.6452H238.51L246.992 38.3589H258.438ZM163.508 38.3589L159.214 1.40234H147.922L143.425 17.736C142.811 19.9814 142.351 22.7386 142.351 22.7386H142.25C142.25 22.7386 141.789 19.9814 141.176 17.736L136.679 1.40275H125.386L121.094 38.3589H130.497L132.132 19.318C132.336 16.7663 132.49 13.8064 132.49 13.8064H132.592C132.592 13.8064 133.155 16.7151 133.869 19.3184L139.287 38.3589H145.315L150.733 19.318C151.448 16.7151 152.01 13.8064 152.01 13.8064H152.112C152.112 13.8064 152.265 16.7663 152.469 19.3184L154.104 38.3589H163.508ZM182.074 10.4723L184.278 15.9355L190.162 16.3418L185.642 20.126L187.072 25.8399L182.074 22.7138L177.073 25.8399L178.505 20.126L173.985 16.3418L179.869 15.9355L182.074 10.4723Z" fill="#00AEEF"></path><path d="M49.7484 6.27778V0.797469H30.3789V11.3068H35.0474L28.637 26.4794L22.9933 11.3068H27.591V0.797469H0.000976562V11.3068H4.25179L14.9114 37.7536H33.6533L45.4984 11.3068H47.6774C47.6368 11.6657 47.6162 12.0266 47.6156 12.3878C47.6156 27.2813 70.8865 24.0801 70.8865 27.9776C70.8865 29.2305 70.0503 29.9959 67.8912 29.9959C62.3865 29.9959 57.5789 27.7692 55.0708 24.1499H47.616V37.7211H57.997V35.2857C60.4352 37.583 65.2428 38.7063 69.4236 38.7063C78.5337 38.7063 84.6659 34.5138 85.9112 28.4432C89.4409 34.8209 96.7294 38.4987 105.172 38.4987C115.623 38.4987 124.333 32.849 126.353 23.454H115.344C114.16 26.8645 110.955 29.3698 107.123 29.3698C103.848 29.3698 102.176 27.6299 102.176 23.9411V20.6696H126.772V19.2782C126.772 7.30722 117.156 0 105.172 0C93.4107 0 83.8907 7.12156 83.6483 18.8199C77.6019 11.9145 62.6655 14.1724 62.6655 10.2306C62.6655 9.11747 63.4317 8.42116 65.5213 8.42116C70.1902 8.42116 74.1617 10.1615 75.4846 13.223H83.7772V0.765781H73.3946L73.3255 3.27153C72.6284 1.94878 68.6566 0.208406 64.4066 0.208406C57.9328 0.208406 52.5647 2.60731 49.7484 6.27778ZM108.237 14.6148H102.176V13.3624C102.176 10.9265 103.012 9.11706 105.172 9.11706C107.401 9.11706 108.237 10.9265 108.237 13.3624V14.6148Z" fill="#EC008C"></path><path d="M305.61 37.7461L295.977 21.2625C301.235 20.2116 304.226 16.7824 304.226 11.1408C304.226 3.83969 298.966 0.796875 293.429 0.796875H282.631V37.7461H285.842V21.4839H292.432L301.569 37.7461H305.61ZM300.848 11.1408C300.848 15.7314 297.859 18.552 293.041 18.552H285.842V3.72959H293.041C297.859 3.72959 300.848 6.55019 300.848 11.1408ZM339.721 27.2364V0.796875H336.674V27.1812C336.674 32.3263 333.131 35.6446 327.871 35.6446C322.776 35.6446 319.121 32.3812 319.121 27.1812V0.796875H315.91V27.2364C315.91 34.2613 320.395 38.3636 327.815 38.3636C335.29 38.3636 339.721 33.9294 339.721 27.2364Z" fill="#EE3D96"></path></svg>