<?xml version="1.0" encoding="UTF-8"?>
<!DOCTYPE svg PUBLIC "-//W3C//DTD SVG 1.1//EN" "http://www.w3.org/Graphics/SVG/1.1/DTD/svg11.dtd">
<!-- Creator: CorelDRAW X7 -->
<svg xmlns="http://www.w3.org/2000/svg" xml:space="preserve" width="2300px" height="451px" version="1.1" style="shape-rendering:geometricPrecision; text-rendering:geometricPrecision; image-rendering:optimizeQuality; fill-rule:evenodd; clip-rule:evenodd"
viewBox="0 0 2301 452"
 xmlns:xlink="http://www.w3.org/1999/xlink">
 <defs>
  <style type="text/css">
   <![CDATA[
    .str0 {stroke:#FC4629;stroke-width:14.0039}
    .fil0 {fill:none}
    .fil1 {fill:#056881}
    .fil2 {fill:#FC4629}
   ]]>
  </style>
 </defs>
 <g id="Слой_x0020_1">
  <metadata id="CorelCorpID_0Corel-Layer"/>
  <path class="fil0 str0" d="M1957 7c64,0 116,30 116,68 0,37 -52,67 -116,67 -64,0 -116,-30 -116,-67 0,-38 52,-68 116,-68z"/>
  <rect class="fil0" y="1" width="2301" height="450"/>
  <path class="fil1" d="M506 313c0,0 0,-62 0,-185 0,0 16,0 47,0 0,0 17,47 50,140 0,0 16,-47 49,-140 0,0 16,0 47,0 0,0 0,62 0,185 0,0 -11,0 -34,0 0,0 0,-46 0,-139 0,0 -16,47 -48,139 0,0 -10,0 -28,0 0,0 -16,-46 -49,-139 0,0 0,47 0,139 0,0 -11,0 -34,0zm229 0c0,0 0,-11 0,-32 0,0 11,0 34,0 0,0 0,11 0,32 0,0 -11,0 -34,0zm70 0c0,0 0,-62 0,-185 0,0 11,0 34,0 0,0 0,27 0,80 0,0 19,-27 57,-80 0,0 14,0 42,0 0,0 -24,30 -70,91 0,0 23,31 70,94 0,0 -14,0 -42,0 0,0 -19,-27 -57,-81 0,0 0,27 0,81 0,0 -11,0 -34,0zm228 -138c0,0 -18,46 -54,138 0,0 -12,0 -37,0 0,0 26,-62 78,-185 0,0 9,0 27,0 0,0 25,62 77,185 0,0 -13,0 -37,0 0,0 -18,-46 -54,-138zm224 -47c0,0 12,0 35,0 0,0 0,62 0,185 0,0 -11,0 -34,0 0,0 0,-43 0,-128 0,0 -27,43 -80,128 0,0 -12,0 -35,0 0,0 0,-62 0,-185 0,0 12,0 34,0 0,0 0,43 0,128 0,0 27,-43 80,-128zm71 185c0,0 0,-62 0,-185 0,0 15,0 47,0 0,0 16,47 50,140 0,0 16,-47 49,-140 0,0 15,0 47,0 0,0 0,62 0,185 0,0 -12,0 -34,0 0,0 0,-46 0,-139 0,0 -16,47 -49,139 0,0 -9,0 -28,0 0,0 -16,-46 -48,-139 0,0 0,47 0,139 0,0 -11,0 -34,0zm212 0c0,0 26,-62 77,-185 0,0 9,0 27,0 0,0 26,62 78,185 0,0 -13,0 -38,0 0,0 -7,-16 -20,-48 0,0 -22,0 -65,0 0,0 -7,16 -21,48 0,0 -13,0 -38,0zm71 -81c0,0 13,0 40,0 0,0 -7,-18 -20,-56 0,0 -7,19 -20,56zm137 81c0,0 0,-51 0,-152 0,0 -11,0 -34,0 0,0 0,-11 0,-33 0,0 34,0 103,0 0,0 0,11 0,33 0,0 -12,0 -35,0 0,0 0,51 0,152 0,0 -11,0 -34,0z"/>
  <path class="fil2" d="M1884 102c0,0 0,-20 0,-61 0,0 5,0 16,0 4,0 7,0 10,1 2,0 4,1 6,2 2,2 4,4 6,7 1,2 2,5 2,9 0,3 -1,7 -3,10 -1,3 -3,5 -6,6 -2,1 -4,2 -6,2 -2,1 -5,1 -10,1l-3 0 0 23 -12 0zm12 -34l3 0c4,0 6,0 8,-1 2,0 3,-1 4,-2 1,-2 1,-3 1,-5 0,-2 0,-4 -1,-5 -1,-1 -2,-2 -4,-3 -2,0 -4,0 -7,0l-4 0 0 16zm36 34c0,0 0,-20 0,-61 0,0 6,0 18,0 4,0 8,0 10,1 3,1 5,2 7,4 4,3 6,8 6,15 0,6 -2,11 -6,14 -2,1 -3,2 -4,3 -2,0 -4,1 -6,2l17 22 -14 0c0,0 -6,-7 -16,-23 0,0 0,8 0,23 0,0 -4,0 -12,0zm12 -32c0,0 1,0 5,0 5,0 8,-1 10,-2 2,-1 3,-4 3,-7 0,-3 -1,-6 -3,-7 -2,-2 -5,-2 -10,-2l-5 0c0,0 0,6 0,18zm68 -30c4,0 8,1 12,2 4,2 8,4 10,7 3,3 6,6 7,10 2,4 3,8 3,13 0,5 -2,11 -4,16 -3,5 -7,8 -12,11 -5,3 -10,5 -16,5 -5,0 -9,-1 -13,-3 -4,-2 -7,-4 -10,-7 -3,-3 -5,-6 -7,-10 -2,-4 -2,-8 -2,-12 0,-5 0,-9 2,-13 2,-4 4,-7 7,-10 3,-3 6,-5 10,-7 4,-1 9,-2 13,-2zm-1 11c-5,0 -10,2 -14,6 -4,4 -6,9 -6,15 0,2 1,5 2,8 1,2 2,5 4,6 2,2 4,4 7,5 2,1 5,1 8,1 6,0 11,-1 14,-5 4,-4 6,-9 6,-15 0,-6 -2,-11 -6,-15 -4,-4 -9,-6 -15,-6z"/>
 </g>
</svg>
